PathFileType	4	(X/Y/Z)	/Users/itak/Documents/Research/Walk-IL/dataset/trc/00525_00183.trc
DataRate	CameraRate	NumFrames	NumMarkers	Units	OrigDataRate	OrigDataStartFrame	OrigNumFrames
100.000000	100.000000	4	53	mm	100.000000	0	559
Frame#	Time	RPSI			LPSI			L3			STRN			T10			C7			CLAV			RBAK			LBAK			LSHO			LUPA			LAEL			LAOL			LWTS			LWPS			LFRA			LIFD			LHPS			LHTS			RSHO			RUPA			RAEL			RAOL			RWTS			RWPS			RFRA			RIFD			RHTS			RHPS			RBHD			LFHD			RFHD			LBHD			LHIP			RHIP			RASI			LASI			LKNE			LTHI			LANK			LTIP			LTOE			LMT1			LMT5			LHEE			RKNE			RTHI			RANK			RTIP			RTOE			RMT1			RMT5			RHEE			
		X1	Y1	Z1	X2	Y2	Z2	X3	Y3	Z3	X4	Y4	Z4	X5	Y5	Z5	X6	Y6	Z6	X7	Y7	Z7	X8	Y8	Z8	X9	Y9	Z9	X10	Y10	Z10	X11	Y11	Z11	X12	Y12	Z12	X13	Y13	Z13	X14	Y14	Z14	X15	Y15	Z15	X16	Y16	Z16	X17	Y17	Z17	X18	Y18	Z18	X19	Y19	Z19	X20	Y20	Z20	X21	Y21	Z21	X22	Y22	Z22	X23	Y23	Z23	X24	Y24	Z24	X25	Y25	Z25	X26	Y26	Z26	X27	Y27	Z27	X28	Y28	Z28	X29	Y29	Z29	X30	Y30	Z30	X31	Y31	Z31	X32	Y32	Z32	X33	Y33	Z33	X34	Y34	Z34	X35	Y35	Z35	X36	Y36	Z36	X37	Y37	Z37	X38	Y38	Z38	X39	Y39	Z39	X40	Y40	Z40	X41	Y41	Z41	X42	Y42	Z42	X43	Y43	Z43	X44	Y44	Z44	X45	Y45	Z45	X46	Y46	Z46	X47	Y47	Z47	X48	Y48	Z48	X49	Y49	Z49	X50	Y50	Z50	X51	Y51	Z51	X52	Y52	Z52	X53	Y53	Z53	

1	0	-1239.028930664062	973.5799560546875	-421.7477722167969	-1172.327026367188	971.4910888671875	-525.297607421875	-1211.580932617188	1036.19970703125	-480.8609008789062	-1007.156677246094	1216.200317382812	-377.7228698730469	-1226.172241210938	1141.811279296875	-483.7666320800781	-1195.198608398438	1374.138549804688	-467.0825500488281	-1047.106079101562	1308.26611328125	-398.2232666015625	-1268.89892578125	1250.163330078125	-407.5279235839844	-1178.429443359375	1318.573120117188	-552.644775390625	-1065.15478515625	1368.747314453125	-582.8391723632812	-1051.922729492188	1241.685302734375	-641.5686645507812	-1024.555541992188	1032.140625	-656.64794921875	-1117.843994140625	1021.793273925781	-620.4835205078125	-948.8016357421875	849.2987060546875	-577.8986206054688	-1005.97900390625	809.426513671875	-641.176025390625	-1005.353942871094	949.6231689453125	-646.4430541992188	-946.9385986328125	691.8356323242188	-561.3429565429688	-984.2518310546875	756.4530639648438	-624.847412109375	-931.3327026367188	770.4567260742188	-588.181884765625	-1209.71630859375	1374.022338867188	-310.3891296386719	-1248.23974609375	1306.27197265625	-264.2149353027344	-1234.332885742188	1038.959716796875	-212.9908752441406	-1272.544555664062	1019.080017089844	-263.5018310546875	-1112.323364257812	844.5131225585938	-224.8111267089844	-1191.24951171875	817.8580932617188	-186.4596862792969	-1226.497436523438	984.9713745117188	-204.1705780029297	-1108.282836914062	685.6185913085938	-207.5282745361328	-1095.008056640625	752.3025512695312	-196.6348876953125	-1164.521484375	745.7554931640625	-181.7459106445312	-1210.626586914062	1533.10888671875	-388.93359375	-1033.11572265625	1607.346313476562	-446.6656188964844	-1101.42724609375	1600.688842773438	-338.8954772949219	-1137.716918945312	1535.413452148438	-530.9104614257812	-1010.592468261719	897.6929321289062	-577.6331176757812	-1213.273803710938	876.3028564453125	-260.3706665039062	-1093.952514648438	921.38037109375	-264.1140747070312	-970.6461791992188	933.3562622070312	-471.8128662109375	-1028.456420898438	474.8625183105469	-547.6810913085938	-1002.59619140625	632.2860717773438	-556.909912109375	-1124.453125	50.68383026123047	-587.47705078125	-1059.376220703125	325.4664001464844	-567.939697265625	-974.5833740234375	38.97216415405273	-444.9936828613281	-1059.182006835938	43.90203857421875	-450.8139343261719	-1022.654968261719	46.59782409667969	-545.8575439453125	-1194.265991210938	47.73075866699219	-552.4257202148438	-1200.689697265625	487.6446228027344	-281.0762634277344	-1193.9345703125	747.83837890625	-241.0315704345703	-1233.183715820312	48.14987182617188	-328.94580078125	-1193.650634765625	343.1860961914062	-295.3817138671875	-1029.95703125	45.85588073730469	-309.5408020019531	-1082.030151367188	52.0208740234375	-363.9759521484375	-1130.130981445312	45.24777221679688	-279.5280151367188	-1266.677856445312	40.24466705322266	-391.0825805664062	
2	0.01	-1238.969360351562	973.5679931640625	-421.7078247070312	-1172.227416992188	971.4375	-525.2435913085938	-1211.559692382812	1036.191772460938	-480.8287048339844	-1007.127502441406	1216.194091796875	-377.7507629394531	-1226.165283203125	1141.803588867188	-483.7505798339844	-1195.175170898438	1374.119384765625	-467.0600280761719	-1047.07373046875	1308.253295898438	-398.2467956542969	-1268.854736328125	1250.156494140625	-407.4857482910156	-1178.421142578125	1318.546020507812	-552.5964965820312	-1065.192138671875	1368.750366210938	-582.8569946289062	-1051.934814453125	1241.688354492188	-641.588134765625	-1024.559326171875	1032.154541015625	-656.6813354492188	-1117.846923828125	1021.785583496094	-620.5116577148438	-948.8043212890625	849.2993774414062	-577.9251708984375	-1005.938110351562	809.4395141601562	-641.20654296875	-1005.31689453125	949.6454467773438	-646.475341796875	-946.826904296875	691.8468627929688	-561.3484497070312	-984.0798950195312	756.3861083984375	-624.8926391601562	-931.2449340820312	770.5107421875	-588.22607421875	-1209.64599609375	1374.01220703125	-310.3657531738281	-1248.150756835938	1306.255615234375	-264.1783752441406	-1234.233154296875	1038.9423828125	-212.9397125244141	-1272.462890625	1019.056091308594	-263.455810546875	-1112.189331054688	844.5047607421875	-224.8204498291016	-1191.140747070312	817.8718872070312	-186.4448699951172	-1226.404052734375	984.9515380859375	-204.1075897216797	-1106.407470703125	685.2206420898438	-210.0653228759766	-1094.895141601562	752.31103515625	-196.6291961669922	-1164.374755859375	745.751220703125	-181.7308349609375	-1210.513549804688	1533.144897460938	-388.815185546875	-1033.026245117188	1607.294677734375	-446.6455078125	-1101.263061523438	1600.654052734375	-338.8305053710938	-1137.689819335938	1535.460327148438	-530.8331298828125	-1010.601867675781	897.6961669921875	-577.6891479492188	-1213.1533203125	876.2808837890625	-260.3641967773438	-1093.833740234375	921.3637084960938	-264.1211547851562	-970.6036376953125	933.3975219726562	-471.8738403320312	-1028.450805664062	474.8503112792969	-547.6988525390625	-1002.605895996094	632.284423828125	-556.9539184570312	-1124.473022460938	50.69064712524414	-587.4769897460938	-1059.390502929688	325.468017578125	-567.9581298828125	-974.5877075195312	38.98044204711914	-444.9679870605469	-1059.184692382812	43.90178680419922	-450.8154907226562	-1022.660522460938	46.59677124023438	-545.8461303710938	-1194.278686523438	47.72979736328125	-552.4229736328125	-1200.587768554688	487.64501953125	-281.1090393066406	-1193.812133789062	747.8417358398438	-241.0144653320312	-1233.184326171875	48.15044021606445	-328.9454345703125	-1193.603393554688	343.187255859375	-295.3814392089844	-1029.954467773438	45.85432434082031	-309.5417785644531	-1082.031127929688	52.01814651489258	-363.9772338867188	-1130.127685546875	45.24851989746094	-279.5331115722656	-1266.721557617188	40.32206726074219	-391.106201171875	
3	0.02	-1238.895751953125	973.5529174804688	-421.6585693359375	-1172.112426757812	971.37646484375	-525.1824951171875	-1211.529296875	1036.180297851562	-480.7923889160156	-1007.091064453125	1216.184448242188	-377.7835693359375	-1226.154418945312	1141.794067382812	-483.7313842773438	-1195.148193359375	1374.097290039062	-467.0294494628906	-1047.031127929688	1308.237915039062	-398.2773132324219	-1268.799438476562	1250.146850585938	-407.4339294433594	-1178.410522460938	1318.515991210938	-552.5401611328125	-1065.234497070312	1368.7548828125	-582.8796997070312	-1051.957397460938	1241.690551757812	-641.6148681640625	-1024.565185546875	1032.170288085938	-656.721923828125	-1117.854614257812	1021.771057128906	-620.555419921875	-948.8004150390625	849.3052978515625	-577.9583129882812	-1005.8837890625	809.4564208984375	-641.2412719726562	-1005.279907226562	949.6718139648438	-646.5177001953125	-946.6566162109375	691.8645629882812	-561.3526611328125	-983.8795166015625	756.3208618164062	-624.9523315429688	-931.1277465820312	770.5822143554688	-588.2882080078125	-1209.558837890625	1373.998657226562	-310.3350524902344	-1248.040283203125	1306.234252929688	-264.1348876953125	-1234.103271484375	1038.919799804688	-212.8735809326172	-1272.358276367188	1019.025268554688	-263.3968200683594	-1112.019287109375	844.4935913085938	-224.8312835693359	-1190.995971679688	817.8848266601562	-186.4222259521484	-1226.279907226562	984.92822265625	-204.0351715087891	-1104.613647460938	684.8475341796875	-212.4113616943359	-1094.749267578125	752.3187255859375	-196.619873046875	-1164.1923828125	745.7457885742188	-181.7070159912109	-1210.374389648438	1533.183837890625	-388.6679077148438	-1032.9052734375	1607.228149414062	-446.6190795898438	-1101.048217773438	1600.602905273438	-338.7517700195312	-1137.652587890625	1535.52001953125	-530.7396240234375	-1010.606384277344	897.69970703125	-577.7520141601562	-1213.003173828125	876.2528076171875	-260.3545227050781	-1093.684448242188	921.343017578125	-264.1312561035156	-970.55224609375	933.4415893554688	-471.9446716308594	-1028.445190429688	474.8319091796875	-547.7179565429688	-1002.621765136719	632.2796020507812	-557.000732421875	-1124.4912109375	50.69560623168945	-587.476318359375	-1059.40234375	325.4695129394531	-567.97802734375	-974.5917358398438	38.98955917358398	-444.9384460449219	-1059.18798828125	43.90178298950195	-450.8163452148438	-1022.664245605469	46.59599685668945	-545.8369750976562	-1194.289794921875	47.73008728027344	-552.420166015625	-1200.452026367188	487.6411437988281	-281.1552124023438	-1193.657836914062	747.8411865234375	-240.9931488037109	-1233.183959960938	48.15036773681641	-328.9462280273438	-1193.541748046875	343.1880493164062	-295.3820190429688	-1029.951538085938	45.85266494750977	-309.5436096191406	-1082.03173828125	52.0150032043457	-363.9788513183594	-1130.124389648438	45.24943923950195	-279.5379943847656	-1266.768676757812	40.404052734375	-391.1319274902344	
4	0.03	-1238.811157226562	973.5350341796875	-421.6022338867188	-1171.992431640625	971.3136596679688	-525.119873046875	-1211.48974609375	1036.165405273438	-480.7548522949219	-1007.049133300781	1216.170776367188	-377.8191833496094	-1226.139038085938	1141.783447265625	-483.7094116210938	-1195.119262695312	1374.073974609375	-466.9913330078125	-1046.979125976562	1308.22119140625	-398.3140563964844	-1268.734741210938	1250.134643554688	-407.3752746582031	-1178.3984375	1318.48583984375	-552.4805908203125	-1065.277465820312	1368.761108398438	-582.9065551757812	-1051.992431640625	1241.691284179688	-641.6484375	-1024.573608398438	1032.186767578125	-656.7674560546875	-1117.869018554688	1021.748840332031	-620.615966796875	-948.7871704101562	849.318115234375	-577.996826171875	-1005.816162109375	809.4767456054688	-641.2776489257812	-1005.248596191406	949.70068359375	-646.5692749023438	-946.4290771484375	691.88916015625	-561.3562622070312	-983.6657104492188	756.2689208984375	-625.025390625	-930.9855346679688	770.6690063476562	-588.3667602539062	-1209.458129882812	1373.981811523438	-310.2977905273438	-1247.913330078125	1306.208251953125	-264.0868530273438	-1233.946899414062	1038.892456054688	-212.7946929931641	-1272.234252929688	1018.988647460938	-263.3265380859375	-1111.820068359375	844.4797973632812	-224.8433685302734	-1190.818359375	817.8944702148438	-186.391357421875	-1226.128051757812	984.9028930664062	-203.9576568603516	-1103.098876953125	684.5425415039062	-214.28857421875	-1094.574462890625	752.32373046875	-196.6064147949219	-1163.982055664062	745.7393798828125	-181.6737823486328	-1210.2158203125	1533.221557617188	-388.4994201660156	-1032.751586914062	1607.148315429688	-446.58642578125	-1100.785400390625	1600.532470703125	-338.6642456054688	-1137.605590820312	1535.590087890625	-530.6353149414062	-1010.604309082031	897.7029418945312	-577.81689453125	-1212.830444335938	876.2198486328125	-260.3408813476562	-1093.51025390625	921.3197631835938	-264.145263671875	-970.4933471679688	933.4820556640625	-472.0204162597656	-1028.439575195312	474.8076171875	-547.736083984375	-1002.639953613281	632.271728515625	-557.0460815429688	-1124.505615234375	50.69749069213867	-587.474609375	-1059.409545898438	325.4703979492188	-567.9970092773438	-974.5942993164062	38.99933242797852	-444.9046630859375	-1059.191650390625	43.90230178833008	-450.8160400390625	-1022.664733886719	46.59597015380859	-545.8320922851562	-1194.298095703125	47.73207092285156	-552.4175415039062	-1200.2880859375	487.6319885253906	-281.2117919921875	-1193.479858398438	747.8359375	-240.9665374755859	-1233.182861328125	48.14937210083008	-328.9483947753906	-1193.468139648438	343.1882934570312	-295.3826293945312	-1029.948120117188	45.85091400146484	-309.5466003417969	-1082.031494140625	52.01155853271484	-363.9808349609375	-1130.121337890625	45.25041961669922	-279.542236328125	-1266.813110351562	40.48013305664062	-391.1563720703125	
